KaputaLibre.ufo
<glyph name="parenleft" format="1">
  <advance width="269"/>
  <unicode hex="0028"/>
  <note>
    parenleft
  </note>
  <outline>
    <contour>
      <point x="247" y="-198" type="line"/>
      <point x="147" y="-59"/>
      <point x="103" y="97"/>
      <point x="103" y="265" type="curve" smooth="yes"/>
      <point x="103" y="433"/>
      <point x="147" y="589"/>
      <point x="247" y="729" type="curve"/>
      <point x="200" y="729" type="line"/>
      <point x="100" y="593"/>
      <point x="56" y="436"/>
      <point x="56" y="265" type="curve" smooth="yes"/>
      <point x="56" y="94"/>
      <point x="100" y="-63"/>
      <point x="200" y="-198" type="curve"/>
    </contour>
  </outline>
</glyph>
<glyph name="zero" format="1">
  <advance width="513"/>
  <unicode hex="0030"/>
  <note>
    zero
  </note>
  <outline>
    <contour>
      <point x="381" y="-8"/>
      <point x="461" y="81"/>
      <point x="461" y="334" type="curve" smooth="yes"/>
      <point x="461" y="586"/>
      <point x="382" y="675"/>
      <point x="256" y="675" type="curve" smooth="yes"/>
      <point x="130" y="675"/>
      <point x="51" y="586"/>
      <point x="51" y="334" type="curve" smooth="yes"/>
      <point x="51" y="81"/>
      <point x="131" y="-8"/>
      <point x="256" y="-8" type="curve" smooth="yes"/>
    </contour>
    <contour>
      <point x="160" y="33"/>
      <point x="98" y="102"/>
      <point x="98" y="335" type="curve" smooth="yes"/>
      <point x="98" y="565"/>
      <point x="160" y="634"/>
      <point x="256" y="634" type="curve" smooth="yes"/>
      <point x="352" y="634"/>
      <point x="414" y="565"/>
      <point x="414" y="332" type="curve" smooth="yes"/>
      <point x="414" y="102"/>
      <point x="352" y="33"/>
      <point x="256" y="33" type="curve" smooth="yes"/>
    </contour>
  </outline>
</glyph>
<glyph name="nine" format="1">
  <advance width="472"/>
  <unicode hex="0039"/>
  <note>
    nine
  </note>
  <outline>
    <contour>
      <point x="104" y="675"/>
      <point x="25" y="612"/>
      <point x="25" y="481" type="curve" smooth="yes"/>
      <point x="25" y="352"/>
      <point x="106" y="290"/>
      <point x="215" y="290" type="curve" smooth="yes"/>
      <point x="282" y="290"/>
      <point x="346" y="316"/>
      <point x="380" y="359" type="curve"/>
      <point x="380" y="407" type="line"/>
      <point x="344" y="352"/>
      <point x="277" y="330"/>
      <point x="220" y="330" type="curve" smooth="yes"/>
      <point x="133" y="330"/>
      <point x="69" y="375"/>
      <point x="69" y="484" type="curve" smooth="yes"/>
      <point x="69" y="591"/>
      <point x="130" y="636"/>
      <point x="205" y="636" type="curve" smooth="yes"/>
      <point x="300" y="636"/>
      <point x="367" y="574"/>
      <point x="367" y="358" type="curve" smooth="yes"/>
      <point x="367" y="346" type="line" smooth="yes"/>
      <point x="367" y="118"/>
      <point x="295" y="32"/>
      <point x="160" y="32" type="curve" smooth="yes"/>
      <point x="124" y="32"/>
      <point x="85" y="38"/>
      <point x="54" y="52" type="curve"/>
      <point x="54" y="10" type="line"/>
      <point x="85" y="-3"/>
      <point x="124" y="-8"/>
      <point x="160" y="-8" type="curve" smooth="yes"/>
      <point x="323" y="-8"/>
      <point x="413" y="96"/>
      <point x="413" y="355" type="curve" smooth="yes"/>
      <point x="413" y="597"/>
      <point x="326" y="675"/>
      <point x="206" y="675" type="curve" smooth="yes"/>
    </contour>
  </outline>
</glyph>
<glyph name="less" format="1">
  <advance width="472"/>
  <unicode hex="003C"/>
  <note>
    less
  </note>
  <outline>
    <contour>
      <point x="403" y="175" type="line"/>
      <point x="403" y="218" type="line"/>
      <point x="103" y="348" type="line"/>
      <point x="103" y="337" type="line"/>
      <point x="403" y="467" type="line"/>
      <point x="403" y="510" type="line"/>
      <point x="67" y="362" type="line"/>
      <point x="67" y="324" type="line"/>
    </contour>
  </outline>
</glyph>
<glyph name="B" format="1">
  <advance width="527"/>
  <unicode hex="0042"/>
  <note>
    B
  </note>
  <outline>
    <contour>
      <point x="415" y="-5"/>
      <point x="493" y="58"/>
      <point x="493" y="178" type="curve" smooth="yes"/>
      <point x="493" y="270"/>
      <point x="443" y="335"/>
      <point x="335" y="348" type="curve"/>
      <point x="334" y="341" type="line"/>
      <point x="437" y="357"/>
      <point x="473" y="424"/>
      <point x="473" y="500" type="curve" smooth="yes"/>
      <point x="473" y="618"/>
      <point x="403" y="674"/>
      <point x="236" y="674" type="curve" smooth="yes"/>
      <point x="173" y="674"/>
      <point x="123" y="668"/>
      <point x="77" y="659" type="curve"/>
      <point x="77" y="4" type="line"/>
      <point x="126" y="-3"/>
      <point x="172" y="-5"/>
      <point x="221" y="-5" type="curve" smooth="yes"/>
    </contour>
    <contour>
      <point x="190" y="35"/>
      <point x="156" y="37"/>
      <point x="121" y="41" type="curve"/>
      <point x="121" y="625" type="line"/>
      <point x="155" y="631"/>
      <point x="189" y="634"/>
      <point x="238" y="634" type="curve" smooth="yes"/>
      <point x="376" y="634"/>
      <point x="429" y="595"/>
      <point x="429" y="499" type="curve" smooth="yes"/>
      <point x="429" y="410"/>
      <point x="382" y="363"/>
      <point x="248" y="363" type="curve" smooth="yes"/>
      <point x="113" y="363" type="line"/>
      <point x="113" y="323" type="line"/>
      <point x="263" y="323" type="line" smooth="yes"/>
      <point x="390" y="323"/>
      <point x="448" y="275"/>
      <point x="448" y="178" type="curve" smooth="yes"/>
      <point x="448" y="81"/>
      <point x="390" y="35"/>
      <point x="227" y="35" type="curve" smooth="yes"/>
    </contour>
  </outline>
</glyph>
<glyph name="e" format="1">
  <advance width="421"/>
  <unicode hex="0065"/>
  <note>
    e
  </note>
  <outline>
    <contour>
      <point x="283" y="-8"/>
      <point x="319" y="-3"/>
      <point x="362" y="11" type="curve"/>
      <point x="362" y="52" type="line"/>
      <point x="318" y="38"/>
      <point x="283" y="32"/>
      <point x="250" y="32" type="curve" smooth="yes"/>
      <point x="143" y="32"/>
      <point x="89" y="84"/>
      <point x="89" y="238" type="curve" smooth="yes"/>
      <point x="89" y="252" type="line" smooth="yes"/>
      <point x="89" y="409"/>
      <point x="141" y="457"/>
      <point x="217" y="457" type="curve" smooth="yes"/>
      <point x="292" y="457"/>
      <point x="339" y="409"/>
      <point x="339" y="252" type="curve"/>
      <point x="350" y="263" type="line"/>
      <point x="69" y="263" type="line"/>
      <point x="69" y="227" type="line"/>
      <point x="385" y="227" type="line"/>
      <point x="385" y="243" type="line" smooth="yes"/>
      <point x="385" y="425"/>
      <point x="321" y="495"/>
      <point x="217" y="495" type="curve" smooth="yes"/>
      <point x="113" y="495"/>
      <point x="42" y="424"/>
      <point x="42" y="244" type="curve" smooth="yes"/>
      <point x="42" y="61"/>
      <point x="114" y="-8"/>
      <point x="246" y="-8" type="curve" smooth="yes"/>
    </contour>
  </outline>
</glyph>
<glyph name="g" format="1">
  <advance width="457"/>
  <unicode hex="0067"/>
  <note>
    g
  </note>
  <outline>
    <contour>
      <point x="322" y="-207"/>
      <point x="389" y="-151"/>
      <point x="389" y="-4" type="curve" smooth="yes"/>
      <point x="389" y="476" type="line"/>
      <point x="354" y="487"/>
      <point x="307" y="495"/>
      <point x="265" y="495" type="curve" smooth="yes"/>
      <point x="122" y="495"/>
      <point x="42" y="414"/>
      <point x="42" y="234" type="curve" smooth="yes"/>
      <point x="42" y="51"/>
      <point x="122" y="-8"/>
      <point x="215" y="-8" type="curve" smooth="yes"/>
      <point x="271" y="-8"/>
      <point x="315" y="18"/>
      <point x="340" y="49" type="curve"/>
      <point x="344" y="49" type="line"/>
      <point x="344" y="-9" type="line" smooth="yes"/>
      <point x="344" y="-127"/>
      <point x="294" y="-167"/>
      <point x="194" y="-167" type="curve" smooth="yes"/>
      <point x="156" y="-167"/>
      <point x="115" y="-160"/>
      <point x="71" y="-145" type="curve"/>
      <point x="71" y="-186" type="line"/>
      <point x="107" y="-200"/>
      <point x="156" y="-207"/>
      <point x="196" y="-207" type="curve" smooth="yes"/>
    </contour>
    <contour>
      <point x="148" y="33"/>
      <point x="89" y="75"/>
      <point x="89" y="239" type="curve" smooth="yes"/>
      <point x="89" y="394"/>
      <point x="151" y="455"/>
      <point x="263" y="455" type="curve" smooth="yes"/>
      <point x="292" y="455"/>
      <point x="323" y="450"/>
      <point x="344" y="445" type="curve"/>
      <point x="344" y="99" type="line"/>
      <point x="316" y="55"/>
      <point x="269" y="33"/>
      <point x="224" y="33" type="curve" smooth="yes"/>
    </contour>
  </outline>
</glyph>
<glyph name="q" format="1">
  <advance width="457"/>
  <unicode hex="0071"/>
  <note>
    q
  </note>
  <outline>
    <contour>
      <point x="344" y="-198" type="line"/>
      <point x="389" y="-198" type="line"/>
      <point x="389" y="476" type="line"/>
      <point x="354" y="487"/>
      <point x="307" y="495"/>
      <point x="265" y="495" type="curve" smooth="yes"/>
      <point x="122" y="495"/>
      <point x="42" y="414"/>
      <point x="42" y="234" type="curve" smooth="yes"/>
      <point x="42" y="51"/>
      <point x="121" y="-8"/>
      <point x="215" y="-8" type="curve" smooth="yes"/>
      <point x="271" y="-8"/>
      <point x="315" y="17"/>
      <point x="340" y="48" type="curve"/>
      <point x="344" y="48" type="line"/>
    </contour>
    <contour>
      <point x="148" y="33"/>
      <point x="89" y="74"/>
      <point x="89" y="238" type="curve" smooth="yes"/>
      <point x="89" y="394"/>
      <point x="151" y="455"/>
      <point x="263" y="455" type="curve" smooth="yes"/>
      <point x="292" y="455"/>
      <point x="323" y="450"/>
      <point x="344" y="445" type="curve"/>
      <point x="344" y="98" type="line"/>
      <point x="316" y="55"/>
      <point x="269" y="33"/>
      <point x="224" y="33" type="curve" smooth="yes"/>
    </contour>
  </outline>
</glyph>
<glyph name="t" format="1">
  <advance width="299"/>
  <unicode hex="0074"/>
  <note>
    t
  </note>
  <outline>
    <contour>
      <point x="252" y="-8"/>
      <point x="275" y="-5"/>
      <point x="295" y="-1" type="curve"/>
      <point x="295" y="41" type="line"/>
      <point x="274" y="36"/>
      <point x="256" y="33"/>
      <point x="238" y="33" type="curve" smooth="yes"/>
      <point x="172" y="33"/>
      <point x="139" y="62"/>
      <point x="139" y="146" type="curve" smooth="yes"/>
      <point x="139" y="667" type="line"/>
      <point x="101" y="667" type="line"/>
      <point x="94" y="488" type="line"/>
      <point x="94" y="138" type="line" smooth="yes"/>
      <point x="94" y="34"/>
      <point x="146" y="-8"/>
      <point x="231" y="-8" type="curve" smooth="yes"/>
    </contour>
    <contour>
      <point x="2" y="448" type="line"/>
      <point x="286" y="448" type="line"/>
      <point x="286" y="488" type="line"/>
      <point x="2" y="488" type="line"/>
    </contour>
  </outline>
</glyph>
<glyph name="threequarters" format="1">
  <advance width="757"/>
  <unicode hex="00BE"/>
  <note>
    threequarters
  </note>
  <outline>
    <contour>
      <point x="235" y="272"/>
      <point x="291" y="317"/>
      <point x="291" y="397" type="curve" smooth="yes"/>
      <point x="291" y="463"/>
      <point x="251" y="505"/>
      <point x="176" y="516" type="curve"/>
      <point x="176" y="509" type="line"/>
      <point x="238" y="522"/>
      <point x="276" y="564"/>
      <point x="276" y="621" type="curve" smooth="yes"/>
      <point x="276" y="694"/>
      <point x="228" y="734"/>
      <point x="139" y="734" type="curve" smooth="yes"/>
      <point x="105" y="734"/>
      <point x="68" y="729"/>
      <point x="42" y="718" type="curve"/>
      <point x="42" y="682" type="line"/>
      <point x="72" y="694"/>
      <point x="103" y="699"/>
      <point x="136" y="699" type="curve" smooth="yes"/>
      <point x="203" y="699"/>
      <point x="237" y="672"/>
      <point x="237" y="619" type="curve" smooth="yes"/>
      <point x="237" y="562"/>
      <point x="193" y="527"/>
      <point x="111" y="527" type="curve" smooth="yes"/>
      <point x="87" y="527" type="line"/>
      <point x="87" y="491" type="line"/>
      <point x="133" y="491" type="line" smooth="yes"/>
      <point x="215" y="491"/>
      <point x="252" y="456"/>
      <point x="252" y="399" type="curve" smooth="yes"/>
      <point x="252" y="339"/>
      <point x="211" y="307"/>
      <point x="136" y="307" type="curve" smooth="yes"/>
      <point x="103" y="307"/>
      <point x="66" y="313"/>
      <point x="33" y="325" type="curve"/>
      <point x="33" y="289" type="line"/>
      <point x="64" y="278"/>
      <point x="100" y="272"/>
      <point x="137" y="272" type="curve" smooth="yes"/>
    </contour>
    <contour>
      <point x="188" y="-61" type="line"/>
      <point x="229" y="-61" type="line"/>
      <point x="568" y="729" type="line"/>
      <point x="527" y="729" type="line"/>
    </contour>
    <contour>
      <point x="443" y="49" type="line"/>
      <point x="743" y="49" type="line"/>
      <point x="743" y="84" type="line"/>
      <point x="476" y="84" type="line"/>
      <point x="483" y="73" type="line"/>
      <point x="644" y="390" type="line"/>
      <point x="604" y="390" type="line"/>
      <point x="443" y="73" type="line"/>
    </contour>
    <contour>
      <point x="645" y="-61" type="line"/>
      <point x="682" y="-61" type="line"/>
      <point x="682" y="237" type="line"/>
      <point x="653" y="237" type="line"/>
      <point x="645" y="84" type="line"/>
    </contour>
  </outline>
</glyph>
<glyph name="sinU" format="1">
  <advance width="532"/>
  <unicode hex="0D8B"/>
  <outline>
    <contour>
      <point x="13" y="150" type="curve" smooth="yes"/>
      <point x="13" y="-30"/>
      <point x="82" y="-111"/>
      <point x="264" y="-111" type="curve" smooth="yes"/>
      <point x="405" y="-111"/>
      <point x="493" y="-64"/>
      <point x="516" y="76" type="curve"/>
      <point x="471" y="75" type="line"/>
      <point x="471" y="-18"/>
      <point x="373" y="-70"/>
      <point x="273" y="-70" type="curve" smooth="yes"/>
      <point x="130" y="-70"/>
      <point x="58" y="-1"/>
      <point x="58" y="135" type="curve" smooth="yes"/>
      <point x="58" y="298"/>
      <point x="86" y="341"/>
      <point x="239" y="341" type="curve" smooth="yes"/>
      <point x="487" y="341" type="line"/>
      <point x="487" y="466"/>
      <point x="428" y="506"/>
      <point x="292" y="506" type="curve" smooth="yes"/>
      <point x="146" y="506"/>
      <point x="82" y="466"/>
      <point x="82" y="386" type="curve"/>
      <point x="125" y="387" type="line"/>
      <point x="125" y="439"/>
      <point x="165" y="465"/>
      <point x="284" y="465" type="curve" smooth="yes"/>
      <point x="369" y="465"/>
      <point x="441" y="462"/>
      <point x="441" y="378" type="curve"/>
      <point x="205" y="378" type="line" smooth="yes"/>
      <point x="77" y="378"/>
      <point x="13" y="309"/>
    </contour>
  </outline>
</glyph>
<glyph name="sinE" format="1">
  <advance width="534"/>
  <unicode hex="0D91"/>
  <outline>
    <contour>
      <point x="21" y="319" type="line"/>
      <point x="80" y="319" type="line"/>
      <point x="48" y="285"/>
      <point x="40" y="231"/>
      <point x="40" y="203" type="curve" smooth="yes"/>
      <point x="40" y="73"/>
      <point x="136" y="0"/>
      <point x="261" y="0" type="curve" smooth="yes"/>
      <point x="394" y="0"/>
      <point x="511" y="107"/>
      <point x="511" y="272" type="curve" smooth="yes"/>
      <point x="511" y="452"/>
      <point x="435" y="586"/>
      <point x="282" y="643" type="curve"/>
      <point x="262" y="618" type="line"/>
      <point x="291" y="601" type="line"/>
      <point x="291" y="584"/>
      <point x="247" y="546"/>
      <point x="247" y="488" type="curve" smooth="yes"/>
      <point x="247" y="476"/>
      <point x="249" y="464"/>
      <point x="251" y="452" type="curve"/>
      <point x="234" y="465"/>
      <point x="212" y="475"/>
      <point x="180" y="475" type="curve" smooth="yes"/>
      <point x="98" y="475"/>
      <point x="70" y="412"/>
      <point x="70" y="358" type="curve"/>
      <point x="21" y="358" type="line"/>
    </contour>
    <contour>
      <point x="82" y="206" type="curve" smooth="yes"/>
      <point x="82" y="254"/>
      <point x="104" y="319"/>
      <point x="147" y="319" type="curve" smooth="yes"/>
      <point x="289" y="320" type="line"/>
      <point x="289" y="356"/>
      <point x="289" y="353"/>
      <point x="289" y="389" type="curve"/>
      <point x="265" y="420" type="line"/>
      <point x="266" y="392"/>
      <point x="308" y="360"/>
      <point x="369" y="360" type="curve" smooth="yes"/>
      <point x="419" y="360"/>
      <point x="454" y="384"/>
      <point x="469" y="401" type="curve"/>
      <point x="446" y="439" type="line"/>
      <point x="444" y="428"/>
      <point x="418" y="402"/>
      <point x="371" y="402" type="curve" smooth="yes"/>
      <point x="308" y="402"/>
      <point x="288" y="445"/>
      <point x="288" y="484" type="curve" smooth="yes"/>
      <point x="288" y="531"/>
      <point x="316" y="542"/>
      <point x="326" y="577" type="curve"/>
      <point x="411" y="515"/>
      <point x="471" y="425"/>
      <point x="471" y="281" type="curve" smooth="yes"/>
      <point x="471" y="178"/>
      <point x="404" y="42"/>
      <point x="262" y="42" type="curve" smooth="yes"/>
      <point x="164" y="42"/>
      <point x="82" y="103"/>
    </contour>
    <contour>
      <point x="109" y="358" type="line"/>
      <point x="109" y="401"/>
      <point x="134" y="436"/>
      <point x="176" y="436" type="curve" smooth="yes"/>
      <point x="220" y="436"/>
      <point x="251" y="408"/>
      <point x="251" y="365" type="curve" smooth="yes"/>
      <point x="251" y="362"/>
      <point x="250" y="360"/>
      <point x="250" y="358" type="curve"/>
    </contour>
  </outline>
</glyph>
<glyph name="sinPa" format="1">
  <advance width="514"/>
  <unicode hex="0DB4"/>
  <outline>
    <contour>
      <point x="17" y="221" type="curve" smooth="yes"/>
      <point x="17" y="83"/>
      <point x="115" y="-1"/>
      <point x="250" y="-1" type="curve" smooth="yes"/>
      <point x="400" y="-1"/>
      <point x="497" y="77"/>
      <point x="497" y="235" type="curve" smooth="yes"/>
      <point x="497" y="311"/>
      <point x="468" y="393"/>
      <point x="356" y="393" type="curve" smooth="yes"/>
      <point x="285" y="393" type="line"/>
      <point x="285" y="433"/>
      <point x="316" y="464"/>
      <point x="362" y="464" type="curve" smooth="yes"/>
      <point x="407" y="464"/>
      <point x="431" y="438"/>
      <point x="430" y="392" type="curve"/>
      <point x="467" y="391" type="line"/>
      <point x="467" y="393"/>
      <point x="467" y="395"/>
      <point x="467" y="396" type="curve" smooth="yes"/>
      <point x="467" y="450"/>
      <point x="437" y="506"/>
      <point x="361" y="506" type="curve" smooth="yes"/>
      <point x="326" y="506"/>
      <point x="272" y="485"/>
      <point x="259" y="433" type="curve"/>
      <point x="248" y="479"/>
      <point x="203" y="506"/>
      <point x="152" y="506" type="curve" smooth="yes"/>
      <point x="88" y="506"/>
      <point x="42" y="467"/>
      <point x="42" y="402" type="curve" smooth="yes"/>
      <point x="42" y="399"/>
      <point x="42" y="395"/>
      <point x="42" y="392" type="curve"/>
      <point x="84" y="392" type="line"/>
      <point x="84" y="441"/>
      <point x="111" y="464"/>
      <point x="156" y="464" type="curve" smooth="yes"/>
      <point x="203" y="464"/>
      <point x="224" y="436"/>
      <point x="224" y="393" type="curve"/>
      <point x="165" y="393" type="line" smooth="yes"/>
      <point x="79" y="393"/>
      <point x="17" y="333"/>
    </contour>
    <contour>
      <point x="57" y="225" type="curve" smooth="yes"/>
      <point x="57" y="314"/>
      <point x="95" y="355"/>
      <point x="174" y="355" type="curve" smooth="yes"/>
      <point x="333" y="355" type="line" smooth="yes"/>
      <point x="334" y="355"/>
      <point x="335" y="355"/>
      <point x="337" y="355" type="curve" smooth="yes"/>
      <point x="422" y="355"/>
      <point x="458" y="321"/>
      <point x="458" y="225" type="curve" smooth="yes"/>
      <point x="458" y="106"/>
      <point x="373" y="41"/>
      <point x="252" y="41" type="curve" smooth="yes"/>
      <point x="157" y="41"/>
      <point x="57" y="97"/>
    </contour>
  </outline>
</glyph>
<glyph name="sinSa" format="1">
  <advance width="544"/>
  <unicode hex="0DC3"/>
  <outline>
    <contour>
      <point x="-3" y="359" type="line"/>
      <point x="61" y="359" type="line"/>
      <point x="25" y="321"/>
      <point x="11" y="246"/>
      <point x="11" y="194" type="curve" smooth="yes"/>
      <point x="11" y="81"/>
      <point x="56" y="-2"/>
      <point x="158" y="-2" type="curve" smooth="yes"/>
      <point x="235" y="-2"/>
      <point x="281" y="63"/>
      <point x="280" y="87" type="curve"/>
      <point x="269" y="87" type="line"/>
      <point x="269" y="21"/>
      <point x="334" y="-2"/>
      <point x="380" y="-2" type="curve" smooth="yes"/>
      <point x="484" y="-2"/>
      <point x="525" y="84"/>
      <point x="525" y="197" type="curve" smooth="yes"/>
      <point x="525" y="349"/>
      <point x="466" y="370"/>
      <point x="458" y="376" type="curve"/>
      <point x="467" y="355" type="line"/>
      <point x="483" y="368"/>
      <point x="499" y="388"/>
      <point x="499" y="417" type="curve" smooth="yes"/>
      <point x="499" y="454"/>
      <point x="466" y="506"/>
      <point x="387" y="506" type="curve" smooth="yes"/>
      <point x="310" y="506"/>
      <point x="279" y="452"/>
      <point x="275" y="439" type="curve"/>
      <point x="271" y="472"/>
      <point x="235" y="506"/>
      <point x="170" y="506" type="curve" smooth="yes"/>
      <point x="89" y="506"/>
      <point x="52" y="450"/>
      <point x="52" y="401" type="curve" smooth="yes"/>
      <point x="52" y="398"/>
      <point x="52" y="395"/>
      <point x="52" y="393" type="curve"/>
      <point x="-3" y="393" type="line"/>
    </contour>
    <contour>
      <point x="50" y="195" type="curve" smooth="yes"/>
      <point x="50" y="313"/>
      <point x="106" y="359"/>
      <point x="112" y="359" type="curve" smooth="yes"/>
      <point x="374" y="359" type="line" smooth="yes"/>
      <point x="452" y="359"/>
      <point x="487" y="281"/>
      <point x="487" y="199" type="curve" smooth="yes"/>
      <point x="487" y="122"/>
      <point x="455" y="42"/>
      <point x="382" y="42" type="curve" smooth="yes"/>
      <point x="324" y="42"/>
      <point x="293" y="94"/>
      <point x="293" y="158" type="curve" smooth="yes"/>
      <point x="293" y="221" type="line"/>
      <point x="253" y="221" type="line"/>
      <point x="253" y="158" type="line" smooth="yes"/>
      <point x="253" y="101"/>
      <point x="227" y="42"/>
      <point x="155" y="42" type="curve" smooth="yes"/>
      <point x="89" y="42"/>
      <point x="50" y="88"/>
    </contour>
    <contour>
      <point x="90" y="393" type="line"/>
      <point x="90" y="435"/>
      <point x="109" y="464"/>
      <point x="169" y="465" type="curve" smooth="yes"/>
      <point x="215" y="465"/>
      <point x="246" y="440"/>
      <point x="246" y="393" type="curve"/>
    </contour>
    <contour>
      <point x="300" y="393" type="line"/>
      <point x="300" y="438"/>
      <point x="340" y="465"/>
      <point x="387" y="465" type="curve" smooth="yes"/>
      <point x="427" y="465"/>
      <point x="458" y="447"/>
      <point x="458" y="413" type="curve" smooth="yes"/>
      <point x="458" y="403"/>
      <point x="455" y="392"/>
      <point x="448" y="381" type="curve"/>
      <point x="431" y="388"/>
      <point x="401" y="393"/>
      <point x="382" y="393" type="curve" smooth="yes"/>
    </contour>
  </outline>
</glyph>
<glyph name="sinMatraI" format="1">
  <advance width="12"/>
  <unicode hex="0DD2"/>
  <outline>
    <contour>
      <point x="-487" y="552" type="curve"/>
      <point x="-442" y="552" type="line"/>
      <point x="-440" y="631"/>
      <point x="-381" y="662"/>
      <point x="-273" y="662" type="curve" smooth="yes"/>
      <point x="-170" y="662"/>
      <point x="-98" y="636"/>
      <point x="-95" y="552" type="curve"/>
      <point x="-52" y="552" type="line"/>
      <point x="-52" y="666"/>
      <point x="-129" y="706"/>
      <point x="-273" y="706" type="curve" smooth="yes"/>
      <point x="-415" y="706"/>
      <point x="-484" y="652"/>
    </contour>
  </outline>
</glyph>
<glyph name="euro" format="1">
  <advance width="332"/>
  <unicode hex="20AC"/>
  <outline>
    <contour>
      <point x="3" y="251" type="line"/>
      <point x="5" y="226" type="line"/>
      <point x="46" y="226" type="line"/>
      <point x="46" y="217"/>
      <point x="45" y="208"/>
      <point x="45" y="186" type="curve"/>
      <point x="46" y="182" type="line"/>
      <point x="8" y="182" type="line"/>
      <point x="10" y="157" type="line"/>
      <point x="47" y="157" type="line"/>
      <point x="59" y="66"/>
      <point x="113" y="-10"/>
      <point x="208" y="-10" type="curve" smooth="yes"/>
      <point x="240" y="-10"/>
      <point x="272" y="0"/>
      <point x="306" y="13" type="curve"/>
      <point x="309" y="41"/>
      <point x="313" y="66"/>
      <point x="318" y="92" type="curve"/>
      <point x="298" y="97" type="line"/>
      <point x="291" y="76"/>
      <point x="283" y="56"/>
      <point x="273" y="43" type="curve" smooth="yes"/>
      <point x="259" y="24"/>
      <point x="238" y="16"/>
      <point x="218" y="16" type="curve" smooth="yes"/>
      <point x="146" y="16"/>
      <point x="119" y="88"/>
      <point x="109" y="157" type="curve"/>
      <point x="267" y="157" type="line"/>
      <point x="269" y="182" type="line"/>
      <point x="106" y="182" type="line"/>
      <point x="106" y="186"/>
      <point x="106" y="190"/>
      <point x="106" y="195" type="curve" smooth="yes"/>
      <point x="106" y="201"/>
      <point x="105" y="209"/>
      <point x="105" y="220" type="curve"/>
      <point x="106" y="226" type="line"/>
      <point x="272" y="226" type="line"/>
      <point x="274" y="251" type="line"/>
      <point x="108" y="251" type="line"/>
      <point x="115" y="323"/>
      <point x="147" y="389"/>
      <point x="219" y="389" type="curve" smooth="yes"/>
      <point x="254" y="389"/>
      <point x="278" y="367"/>
      <point x="285" y="316" type="curve"/>
      <point x="307" y="319" type="line"/>
      <point x="307" y="346"/>
      <point x="307" y="373"/>
      <point x="311" y="400" type="curve"/>
      <point x="286" y="410"/>
      <point x="254" y="415"/>
      <point x="229" y="415" type="curve" smooth="yes"/>
      <point x="128" y="415"/>
      <point x="65" y="346"/>
      <point x="49" y="251" type="curve"/>
    </contour>
  </outline>
</glyph>
<glyph name="trademark" format="1">
  <advance width="841"/>
  <unicode hex="2122"/>
  <note>
    trademark
  </note>
  <outline>
    <contour>
      <point x="146" y="216" type="line"/>
      <point x="186" y="216" type="line"/>
      <point x="186" y="630" type="line"/>
      <point x="326" y="630" type="line"/>
      <point x="326" y="667" type="line"/>
      <point x="5" y="667" type="line"/>
      <point x="5" y="630" type="line"/>
      <point x="146" y="630" type="line"/>
    </contour>
    <contour>
      <point x="371" y="216" type="line"/>
      <point x="409" y="216" type="line"/>
      <point x="409" y="629" type="line"/>
      <point x="394" y="629" type="line"/>
      <point x="550" y="278" type="line"/>
      <point x="587" y="278" type="line"/>
      <point x="742" y="629" type="line"/>
      <point x="729" y="629" type="line"/>
      <point x="729" y="216" type="line"/>
      <point x="768" y="216" type="line"/>
      <point x="768" y="667" type="line"/>
      <point x="721" y="667" type="line"/>
      <point x="565" y="311" type="line"/>
      <point x="575" y="311" type="line"/>
      <point x="418" y="667" type="line"/>
      <point x="371" y="667" type="line"/>
    </contour>
  </outline>
</glyph>
<glyph name="dottedCircle" format="1">
  <advance width="479"/>
  <unicode hex="25CC"/>
  <outline>
    <contour>
      <point x="51" y="188" type="curve" smooth="yes"/>
      <point x="51" y="175"/>
      <point x="57" y="169"/>
      <point x="70" y="169" type="curve" smooth="yes"/>
      <point x="82" y="169"/>
      <point x="88" y="175"/>
      <point x="88" y="188" type="curve" smooth="yes"/>
      <point x="88" y="200"/>
      <point x="82" y="206"/>
      <point x="70" y="206" type="curve" smooth="yes"/>
      <point x="57" y="206"/>
      <point x="51" y="200"/>
    </contour>
    <contour>
      <point x="64" y="123" type="curve" smooth="yes"/>
      <point x="64" y="110"/>
      <point x="70" y="104"/>
      <point x="83" y="104" type="curve" smooth="yes"/>
      <point x="95" y="104"/>
      <point x="101" y="110"/>
      <point x="101" y="123" type="curve" smooth="yes"/>
      <point x="101" y="135"/>
      <point x="95" y="142"/>
      <point x="83" y="142" type="curve" smooth="yes"/>
      <point x="70" y="142"/>
      <point x="64" y="135"/>
    </contour>
    <contour>
      <point x="64" y="252" type="curve" smooth="yes"/>
      <point x="64" y="239"/>
      <point x="71" y="233"/>
      <point x="83" y="233" type="curve" smooth="yes"/>
      <point x="95" y="233"/>
      <point x="101" y="239"/>
      <point x="101" y="252" type="curve" smooth="yes"/>
      <point x="101" y="264"/>
      <point x="95" y="270"/>
      <point x="83" y="270" type="curve" smooth="yes"/>
      <point x="70" y="270"/>
      <point x="64" y="264"/>
    </contour>
    <contour>
      <point x="101" y="67" type="curve" smooth="yes"/>
      <point x="101" y="55"/>
      <point x="107" y="49"/>
      <point x="120" y="49" type="curve" smooth="yes"/>
      <point x="132" y="49"/>
      <point x="138" y="55"/>
      <point x="138" y="67" type="curve" smooth="yes"/>
      <point x="138" y="80"/>
      <point x="131" y="86"/>
      <point x="119" y="86" type="curve" smooth="yes"/>
      <point x="106" y="86"/>
      <point x="101" y="80"/>
    </contour>
    <contour>
      <point x="101" y="306" type="curve" smooth="yes"/>
      <point x="101" y="295"/>
      <point x="106" y="289"/>
      <point x="119" y="289" type="curve" smooth="yes"/>
      <point x="131" y="289"/>
      <point x="138" y="295"/>
      <point x="138" y="307" type="curve" smooth="yes"/>
      <point x="138" y="319"/>
      <point x="131" y="325"/>
      <point x="119" y="325" type="curve" smooth="yes"/>
      <point x="106" y="325"/>
      <point x="101" y="319"/>
    </contour>
    <contour>
      <point x="156" y="31" type="curve" smooth="yes"/>
      <point x="156" y="19"/>
      <point x="162" y="13"/>
      <point x="174" y="13" type="curve" smooth="yes"/>
      <point x="186" y="13"/>
      <point x="192" y="20"/>
      <point x="192" y="32" type="curve" smooth="yes"/>
      <point x="192" y="44"/>
      <point x="186" y="50"/>
      <point x="174" y="50" type="curve" smooth="yes"/>
      <point x="162" y="50"/>
      <point x="156" y="44"/>
    </contour>
    <contour>
      <point x="156" y="343" type="curve" smooth="yes"/>
      <point x="156" y="331"/>
      <point x="162" y="325"/>
      <point x="174" y="325" type="curve" smooth="yes"/>
      <point x="186" y="325"/>
      <point x="192" y="331"/>
      <point x="192" y="343" type="curve" smooth="yes"/>
      <point x="192" y="356"/>
      <point x="186" y="362"/>
      <point x="174" y="362" type="curve" smooth="yes"/>
      <point x="162" y="362"/>
      <point x="156" y="356"/>
    </contour>
    <contour>
      <point x="220" y="19" type="curve" smooth="yes"/>
      <point x="220" y="6"/>
      <point x="226" y="0"/>
      <point x="238" y="0" type="curve" smooth="yes"/>
      <point x="250" y="0"/>
      <point x="256" y="6"/>
      <point x="256" y="19" type="curve" smooth="yes"/>
      <point x="256" y="31"/>
      <point x="250" y="37"/>
      <point x="238" y="37" type="curve" smooth="yes"/>
      <point x="226" y="37"/>
      <point x="220" y="31"/>
    </contour>
    <contour>
      <point x="220" y="357" type="curve" smooth="yes"/>
      <point x="220" y="344"/>
      <point x="226" y="338"/>
      <point x="238" y="338" type="curve" smooth="yes"/>
      <point x="250" y="338"/>
      <point x="256" y="344"/>
      <point x="256" y="357" type="curve" smooth="yes"/>
      <point x="256" y="369"/>
      <point x="250" y="375"/>
      <point x="238" y="375" type="curve" smooth="yes"/>
      <point x="226" y="375"/>
      <point x="220" y="369"/>
    </contour>
    <contour>
      <point x="284" y="343" type="curve" smooth="yes"/>
      <point x="284" y="331"/>
      <point x="291" y="325"/>
      <point x="303" y="325" type="curve" smooth="yes"/>
      <point x="315" y="325"/>
      <point x="321" y="331"/>
      <point x="321" y="343" type="curve" smooth="yes"/>
      <point x="321" y="356"/>
      <point x="315" y="362"/>
      <point x="303" y="362" type="curve" smooth="yes"/>
      <point x="291" y="362"/>
      <point x="284" y="356"/>
    </contour>
    <contour>
      <point x="285" y="31" type="curve" smooth="yes"/>
      <point x="285" y="19"/>
      <point x="291" y="13"/>
      <point x="303" y="13" type="curve" smooth="yes"/>
      <point x="315" y="13"/>
      <point x="321" y="19"/>
      <point x="321" y="31" type="curve" smooth="yes"/>
      <point x="321" y="44"/>
      <point x="315" y="50"/>
      <point x="303" y="50" type="curve" smooth="yes"/>
      <point x="291" y="50"/>
      <point x="285" y="44"/>
    </contour>
    <contour>
      <point x="339" y="307" type="curve" smooth="yes"/>
      <point x="339" y="295"/>
      <point x="346" y="289"/>
      <point x="358" y="289" type="curve" smooth="yes"/>
      <point x="371" y="289"/>
      <point x="376" y="295"/>
      <point x="376" y="307" type="curve" smooth="yes"/>
      <point x="376" y="319"/>
      <point x="371" y="325"/>
      <point x="358" y="325" type="curve" smooth="yes"/>
      <point x="346" y="325"/>
      <point x="339" y="319"/>
    </contour>
    <contour>
      <point x="340" y="67" type="curve" smooth="yes"/>
      <point x="340" y="55"/>
      <point x="346" y="49"/>
      <point x="358" y="49" type="curve" smooth="yes"/>
      <point x="371" y="49"/>
      <point x="376" y="55"/>
      <point x="376" y="67" type="curve" smooth="yes"/>
      <point x="376" y="80"/>
      <point x="371" y="86"/>
      <point x="358" y="86" type="curve" smooth="yes"/>
      <point x="346" y="86"/>
      <point x="340" y="80"/>
    </contour>
    <contour>
      <point x="376" y="123" type="curve" smooth="yes"/>
      <point x="376" y="110"/>
      <point x="382" y="104"/>
      <point x="395" y="104" type="curve" smooth="yes"/>
      <point x="407" y="104"/>
      <point x="414" y="110"/>
      <point x="414" y="123" type="curve" smooth="yes"/>
      <point x="414" y="135"/>
      <point x="407" y="142"/>
      <point x="395" y="142" type="curve" smooth="yes"/>
      <point x="382" y="142"/>
      <point x="376" y="135"/>
    </contour>
    <contour>
      <point x="376" y="252" type="curve" smooth="yes"/>
      <point x="376" y="239"/>
      <point x="382" y="233"/>
      <point x="395" y="233" type="curve" smooth="yes"/>
      <point x="407" y="233"/>
      <point x="414" y="239"/>
      <point x="414" y="252" type="curve" smooth="yes"/>
      <point x="414" y="264"/>
      <point x="408" y="270"/>
      <point x="396" y="270" type="curve" smooth="yes"/>
      <point x="383" y="270"/>
      <point x="376" y="264"/>
    </contour>
    <contour>
      <point x="389" y="188" type="curve" smooth="yes"/>
      <point x="389" y="175"/>
      <point x="396" y="169"/>
      <point x="408" y="169" type="curve" smooth="yes"/>
      <point x="420" y="169"/>
      <point x="426" y="175"/>
      <point x="426" y="188" type="curve" smooth="yes"/>
      <point x="426" y="200"/>
      <point x="420" y="206"/>
      <point x="408" y="206" type="curve" smooth="yes"/>
      <point x="396" y="206"/>
      <point x="389" y="200"/>
    </contour>
  </outline>
</glyph>
<glyph name=".notdef" format="1">
  <advance width="430"/>
  <outline>
    <contour>
      <point x="57" y="0" type="line"/>
      <point x="391" y="0" type="line"/>
      <point x="391" y="469" type="line"/>
      <point x="57" y="469" type="line"/>
    </contour>
    <contour>
      <point x="85" y="28" type="line"/>
      <point x="85" y="441" type="line"/>
      <point x="363" y="441" type="line"/>
      <point x="363" y="28" type="line"/>
    </contour>
    <contour>
      <point x="138" y="309" type="curve"/>
      <point x="171" y="303" type="line"/>
      <point x="175" y="347"/>
      <point x="196" y="365"/>
      <point x="225" y="365" type="curve" smooth="yes"/>
      <point x="253" y="365"/>
      <point x="274" y="338"/>
      <point x="274" y="310" type="curve" smooth="yes"/>
      <point x="274" y="301"/>
      <point x="273" y="294"/>
      <point x="269" y="287" type="curve" smooth="yes"/>
      <point x="264" y="279"/>
      <point x="255" y="269"/>
      <point x="241" y="255" type="curve" smooth="yes"/>
      <point x="212" y="224"/>
      <point x="203" y="216"/>
      <point x="203" y="164" type="curve"/>
      <point x="204" y="153" type="line"/>
      <point x="234" y="153" type="line"/>
      <point x="234" y="177"/>
      <point x="235" y="192"/>
      <point x="239" y="199" type="curve"/>
      <point x="241" y="208"/>
      <point x="251" y="220"/>
      <point x="267" y="236" type="curve" smooth="yes"/>
      <point x="292" y="261"/>
      <point x="308" y="272"/>
      <point x="308" y="313" type="curve" smooth="yes"/>
      <point x="308" y="361"/>
      <point x="274" y="398"/>
      <point x="226" y="398" type="curve" smooth="yes"/>
      <point x="179" y="398"/>
      <point x="144" y="371"/>
    </contour>
    <contour>
      <point x="200" y="76" type="line"/>
      <point x="237" y="76" type="line"/>
      <point x="237" y="120" type="line"/>
      <point x="200" y="120" type="line"/>
    </contour>
  </outline>
</glyph>
<glyph name="approxequal.tf" format="1">
  <advance width="484"/>
  <note>
    approxequal.tf
  </note>
  <outline>
    <contour>
      <point x="356" y="381"/>
      <point x="388" y="395"/>
      <point x="409" y="422" type="curve"/>
      <point x="409" y="468" type="line"/>
      <point x="384" y="435"/>
      <point x="354" y="420"/>
      <point x="319" y="420" type="curve" smooth="yes"/>
      <point x="271" y="420"/>
      <point x="223" y="472"/>
      <point x="162" y="472" type="curve" smooth="yes"/>
      <point x="126" y="472"/>
      <point x="94" y="458"/>
      <point x="73" y="431" type="curve"/>
      <point x="73" y="385" type="line"/>
      <point x="99" y="417"/>
      <point x="128" y="433"/>
      <point x="163" y="433" type="curve" smooth="yes"/>
      <point x="211" y="433"/>
      <point x="259" y="381"/>
      <point x="320" y="381" type="curve" smooth="yes"/>
    </contour>
    <contour>
      <point x="356" y="213"/>
      <point x="388" y="228"/>
      <point x="409" y="254" type="curve"/>
      <point x="409" y="301" type="line"/>
      <point x="384" y="268"/>
      <point x="354" y="252"/>
      <point x="319" y="252" type="curve" smooth="yes"/>
      <point x="271" y="252"/>
      <point x="223" y="304"/>
      <point x="162" y="304" type="curve" smooth="yes"/>
      <point x="126" y="304"/>
      <point x="94" y="290"/>
      <point x="73" y="263" type="curve"/>
      <point x="73" y="217" type="line"/>
      <point x="99" y="250"/>
      <point x="128" y="266"/>
      <point x="163" y="266" type="curve" smooth="yes"/>
      <point x="211" y="266"/>
      <point x="259" y="213"/>
      <point x="320" y="213" type="curve" smooth="yes"/>
    </contour>
  </outline>
</glyph>
<glyph name="equal.osf" format="1">
  <advance width="472"/>
  <note>
    equal.osf
  </note>
  <outline>
    <contour>
      <point x="67" y="317" type="line"/>
      <point x="403" y="317" type="line"/>
      <point x="403" y="357" type="line"/>
      <point x="67" y="357" type="line"/>
    </contour>
    <contour>
      <point x="67" y="148" type="line"/>
      <point x="403" y="148" type="line"/>
      <point x="403" y="188" type="line"/>
      <point x="67" y="188" type="line"/>
    </contour>
  </outline>
</glyph>
<glyph name="greaterequal.tf" format="1">
  <advance width="484"/>
  <note>
    greaterequal.tf
  </note>
  <outline>
    <contour>
      <point x="73" y="184" type="line"/>
      <point x="409" y="329" type="line"/>
      <point x="409" y="364" type="line"/>
      <point x="73" y="510" type="line"/>
      <point x="73" y="467" type="line"/>
      <point x="373" y="339" type="line"/>
      <point x="373" y="354" type="line"/>
      <point x="73" y="226" type="line"/>
    </contour>
    <contour>
      <point x="73" y="0" type="line"/>
      <point x="409" y="0" type="line"/>
      <point x="409" y="39" type="line"/>
      <point x="73" y="39" type="line"/>
    </contour>
  </outline>
</glyph>
<glyph name="less.osf" format="1">
  <advance width="472"/>
  <note>
    less.osf
  </note>
  <outline>
    <contour>
      <point x="403" y="85" type="line"/>
      <point x="403" y="128" type="line"/>
      <point x="103" y="258" type="line"/>
      <point x="103" y="247" type="line"/>
      <point x="403" y="377" type="line"/>
      <point x="403" y="420" type="line"/>
      <point x="67" y="271" type="line"/>
      <point x="67" y="234" type="line"/>
    </contour>
  </outline>
</glyph>
<glyph name="uni0D9E0DCA" format="1">
  <advance width="533"/>
  <outline>
    <contour>
      <point x="0" y="369" type="curve" smooth="yes"/>
      <point x="0" y="333"/>
      <point x="18" y="318"/>
      <point x="58" y="306" type="curve"/>
      <point x="27" y="282"/>
      <point x="12" y="237"/>
      <point x="12" y="171" type="curve" smooth="yes"/>
      <point x="12" y="77"/>
      <point x="53" y="-1"/>
      <point x="142" y="-1" type="curve" smooth="yes"/>
      <point x="192" y="-1"/>
      <point x="226" y="21"/>
      <point x="245" y="63" type="curve"/>
      <point x="261" y="21"/>
      <point x="297" y="-1"/>
      <point x="352" y="-1" type="curve" smooth="yes"/>
      <point x="456" y="-1"/>
      <point x="508" y="86"/>
      <point x="508" y="260" type="curve" smooth="yes"/>
      <point x="508" y="340"/>
      <point x="495" y="409"/>
      <point x="470" y="466" type="curve" smooth="yes"/>
      <point x="455" y="502"/>
      <point x="435" y="528"/>
      <point x="413" y="546" type="curve" smooth="yes"/>
      <point x="375" y="578"/>
      <point x="295" y="596"/>
      <point x="168" y="596" type="curve" smooth="yes"/>
      <point x="157" y="596"/>
      <point x="145" y="596"/>
      <point x="132" y="595" type="curve"/>
      <point x="117" y="602"/>
      <point x="110" y="615"/>
      <point x="110" y="633" type="curve" smooth="yes"/>
      <point x="110" y="635"/>
      <point x="110" y="638"/>
      <point x="110" y="640" type="curve" smooth="yes"/>
      <point x="110" y="681"/>
      <point x="169" y="688"/>
      <point x="273" y="688" type="curve" smooth="yes"/>
      <point x="291" y="688"/>
      <point x="310" y="688"/>
      <point x="331" y="688" type="curve" smooth="yes"/>
      <point x="373" y="688"/>
      <point x="403" y="679"/>
      <point x="421" y="661" type="curve"/>
      <point x="435" y="653"/>
      <point x="443" y="624"/>
      <point x="447" y="572" type="curve"/>
      <point x="492" y="572" type="line"/>
      <point x="492" y="644"/>
      <point x="469" y="687"/>
      <point x="427" y="706" type="curve" smooth="yes"/>
      <point x="400" y="718"/>
      <point x="353" y="727"/>
      <point x="280" y="727" type="curve" smooth="yes"/>
      <point x="179" y="727"/>
      <point x="116" y="714"/>
      <point x="92" y="689" type="curve" smooth="yes"/>
      <point x="78" y="674"/>
      <point x="71" y="657"/>
      <point x="71" y="640" type="curve" smooth="yes"/>
      <point x="71" y="626"/>
      <point x="76" y="611"/>
      <point x="84" y="596" type="curve"/>
      <point x="28" y="596" type="line"/>
      <point x="29" y="547" type="line"/>
      <point x="110" y="550"/>
      <point x="171" y="552"/>
      <point x="212" y="552" type="curve" smooth="yes"/>
      <point x="325" y="552"/>
      <point x="395" y="520"/>
      <point x="423" y="457" type="curve" smooth="yes"/>
      <point x="447" y="401"/>
      <point x="459" y="342"/>
      <point x="459" y="279" type="curve" smooth="yes"/>
      <point x="459" y="263"/>
      <point x="460" y="248"/>
      <point x="460" y="234" type="curve" smooth="yes"/>
      <point x="460" y="167"/>
      <point x="450" y="119"/>
      <point x="429" y="91" type="curve" smooth="yes"/>
      <point x="404" y="58"/>
      <point x="378" y="41"/>
      <point x="351" y="41" type="curve" smooth="yes"/>
      <point x="294" y="41"/>
      <point x="265" y="75"/>
      <point x="265" y="142" type="curve" smooth="yes"/>
      <point x="265" y="210" type="line"/>
      <point x="266" y="234" type="line"/>
      <point x="222" y="234" type="line"/>
      <point x="222" y="230"/>
      <point x="223" y="226"/>
      <point x="223" y="219" type="curve" smooth="yes"/>
      <point x="223" y="169" type="line" smooth="yes"/>
      <point x="223" y="83"/>
      <point x="195" y="41"/>
      <point x="140" y="41" type="curve" smooth="yes"/>
      <point x="87" y="41"/>
      <point x="55" y="96"/>
      <point x="55" y="152" type="curve" smooth="yes"/>
      <point x="55" y="255"/>
      <point x="79" y="306"/>
      <point x="127" y="306" type="curve" smooth="yes"/>
      <point x="267" y="306" type="line"/>
      <point x="267" y="375" type="line" smooth="yes"/>
      <point x="267" y="430"/>
      <point x="232" y="461"/>
      <point x="168" y="467" type="curve"/>
      <point x="112" y="467" type="line"/>
      <point x="77" y="463"/>
      <point x="49" y="456"/>
      <point x="33" y="442" type="curve" smooth="yes"/>
      <point x="8" y="422"/>
      <point x="0" y="396"/>
    </contour>
    <contour>
      <point x="34" y="385" type="curve" smooth="yes"/>
      <point x="34" y="390"/>
      <point x="36" y="396"/>
      <point x="41" y="401" type="curve" smooth="yes"/>
      <point x="58" y="418"/>
      <point x="76" y="430"/>
      <point x="99" y="430" type="curve" smooth="yes"/>
      <point x="110" y="430" type="line" smooth="yes"/>
      <point x="113" y="430"/>
      <point x="116" y="430"/>
      <point x="119" y="429" type="curve" smooth="yes"/>
      <point x="123" y="427"/>
      <point x="132" y="414"/>
      <point x="132" y="404" type="curve" smooth="yes"/>
      <point x="132" y="378"/>
      <point x="88" y="360"/>
      <point x="64" y="360" type="curve" smooth="yes"/>
      <point x="47" y="360"/>
      <point x="34" y="369"/>
    </contour>
    <contour>
      <point x="94" y="341" type="line"/>
      <point x="121" y="345"/>
      <point x="143" y="354"/>
      <point x="160" y="369" type="curve"/>
      <point x="167" y="382"/>
      <point x="170" y="393"/>
      <point x="170" y="404" type="curve" smooth="yes"/>
      <point x="170" y="412"/>
      <point x="168" y="419"/>
      <point x="164" y="426" type="curve"/>
      <point x="195" y="426"/>
      <point x="226" y="393"/>
      <point x="226" y="366" type="curve" smooth="yes"/>
      <point x="226" y="343" type="line"/>
    </contour>
  </outline>
</glyph>
<glyph name="uni0D9E0DD3" format="1">
  <advance width="533"/>
  <outline>
    <contour>
      <point x="0" y="369" type="curve" smooth="yes"/>
      <point x="0" y="333"/>
      <point x="18" y="318"/>
      <point x="58" y="306" type="curve"/>
      <point x="27" y="282"/>
      <point x="12" y="237"/>
      <point x="12" y="171" type="curve" smooth="yes"/>
      <point x="12" y="77"/>
      <point x="53" y="-1"/>
      <point x="142" y="-1" type="curve" smooth="yes"/>
      <point x="192" y="-1"/>
      <point x="226" y="21"/>
      <point x="245" y="63" type="curve"/>
      <point x="261" y="21"/>
      <point x="297" y="-1"/>
      <point x="352" y="-1" type="curve" smooth="yes"/>
      <point x="456" y="-1"/>
      <point x="508" y="86"/>
      <point x="508" y="260" type="curve" smooth="yes"/>
      <point x="508" y="340"/>
      <point x="495" y="409"/>
      <point x="470" y="466" type="curve" smooth="yes"/>
      <point x="455" y="502"/>
      <point x="435" y="528"/>
      <point x="413" y="546" type="curve" smooth="yes"/>
      <point x="379" y="575"/>
      <point x="327" y="591"/>
      <point x="254" y="591" type="curve" smooth="yes"/>
      <point x="239" y="591"/>
      <point x="224" y="591"/>
      <point x="207" y="589" type="curve" smooth="yes"/>
      <point x="184" y="586"/>
      <point x="164" y="583"/>
      <point x="146" y="583" type="curve" smooth="yes"/>
      <point x="107" y="583"/>
      <point x="68" y="592"/>
      <point x="68" y="627" type="curve" smooth="yes"/>
      <point x="68" y="635"/>
      <point x="70" y="643"/>
      <point x="74" y="652" type="curve"/>
      <point x="93" y="675"/>
      <point x="132" y="688"/>
      <point x="191" y="691" type="curve" smooth="yes"/>
      <point x="212" y="692"/>
      <point x="233" y="692"/>
      <point x="257" y="692" type="curve" smooth="yes"/>
      <point x="280" y="692"/>
      <point x="305" y="692"/>
      <point x="332" y="691" type="curve" smooth="yes"/>
      <point x="379" y="690"/>
      <point x="413" y="684"/>
      <point x="433" y="674" type="curve"/>
      <point x="447" y="662"/>
      <point x="454" y="648"/>
      <point x="454" y="631" type="curve" smooth="yes"/>
      <point x="454" y="606"/>
      <point x="431" y="594"/>
      <point x="409" y="594" type="curve" smooth="yes"/>
      <point x="384" y="594"/>
      <point x="359" y="612"/>
      <point x="359" y="645" type="curve" smooth="yes"/>
      <point x="359" y="656"/>
      <point x="363" y="669"/>
      <point x="370" y="682" type="curve"/>
      <point x="341" y="688" type="line"/>
      <point x="335" y="668"/>
      <point x="332" y="652"/>
      <point x="332" y="638" type="curve" smooth="yes"/>
      <point x="332" y="591"/>
      <point x="376" y="567"/>
      <point x="421" y="567" type="curve" smooth="yes"/>
      <point x="427" y="567"/>
      <point x="434" y="567"/>
      <point x="440" y="569" type="curve" smooth="yes"/>
      <point x="467" y="577"/>
      <point x="483" y="590"/>
      <point x="487" y="605" type="curve" smooth="yes"/>
      <point x="489" y="612"/>
      <point x="488" y="619"/>
      <point x="488" y="625" type="curve" smooth="yes"/>
      <point x="488" y="667"/>
      <point x="467" y="693"/>
      <point x="429" y="708" type="curve" smooth="yes"/>
      <point x="401" y="719"/>
      <point x="353" y="727"/>
      <point x="280" y="727" type="curve" smooth="yes"/>
      <point x="262" y="727"/>
      <point x="244" y="728"/>
      <point x="227" y="728" type="curve" smooth="yes"/>
      <point x="159" y="728"/>
      <point x="107" y="719"/>
      <point x="71" y="703" type="curve" smooth="yes"/>
      <point x="40" y="689"/>
      <point x="24" y="665"/>
      <point x="24" y="630" type="curve" smooth="yes"/>
      <point x="24" y="626"/>
      <point x="24" y="623"/>
      <point x="25" y="619" type="curve" smooth="yes"/>
      <point x="25" y="617"/>
      <point x="25" y="615"/>
      <point x="25" y="613" type="curve" smooth="yes"/>
      <point x="25" y="588"/>
      <point x="38" y="569"/>
      <point x="64" y="555" type="curve"/>
      <point x="70" y="549"/>
      <point x="88" y="546"/>
      <point x="118" y="546" type="curve" smooth="yes"/>
      <point x="142" y="546"/>
      <point x="173" y="552"/>
      <point x="212" y="552" type="curve" smooth="yes"/>
      <point x="325" y="552"/>
      <point x="395" y="520"/>
      <point x="423" y="457" type="curve" smooth="yes"/>
      <point x="447" y="401"/>
      <point x="459" y="342"/>
      <point x="459" y="279" type="curve" smooth="yes"/>
      <point x="459" y="263"/>
      <point x="460" y="248"/>
      <point x="460" y="234" type="curve" smooth="yes"/>
      <point x="460" y="167"/>
      <point x="450" y="119"/>
      <point x="429" y="91" type="curve" smooth="yes"/>
      <point x="404" y="58"/>
      <point x="378" y="41"/>
      <point x="351" y="41" type="curve" smooth="yes"/>
      <point x="294" y="41"/>
      <point x="265" y="75"/>
      <point x="265" y="142" type="curve" smooth="yes"/>
      <point x="265" y="210" type="line"/>
      <point x="266" y="234" type="line"/>
      <point x="222" y="234" type="line"/>
      <point x="222" y="230"/>
      <point x="223" y="226"/>
      <point x="223" y="219" type="curve" smooth="yes"/>
      <point x="223" y="169" type="line" smooth="yes"/>
      <point x="223" y="83"/>
      <point x="195" y="41"/>
      <point x="140" y="41" type="curve" smooth="yes"/>
      <point x="87" y="41"/>
      <point x="55" y="96"/>
      <point x="55" y="152" type="curve" smooth="yes"/>
      <point x="55" y="255"/>
      <point x="79" y="306"/>
      <point x="127" y="306" type="curve" smooth="yes"/>
      <point x="267" y="306" type="line"/>
      <point x="267" y="375" type="line" smooth="yes"/>
      <point x="267" y="430"/>
      <point x="232" y="461"/>
      <point x="168" y="467" type="curve"/>
      <point x="112" y="467" type="line"/>
      <point x="77" y="463"/>
      <point x="49" y="456"/>
      <point x="33" y="442" type="curve" smooth="yes"/>
      <point x="8" y="422"/>
      <point x="0" y="396"/>
    </contour>
    <contour>
      <point x="34" y="385" type="curve" smooth="yes"/>
      <point x="34" y="390"/>
      <point x="36" y="396"/>
      <point x="41" y="401" type="curve" smooth="yes"/>
      <point x="58" y="418"/>
      <point x="76" y="430"/>
      <point x="99" y="430" type="curve" smooth="yes"/>
      <point x="110" y="430" type="line" smooth="yes"/>
      <point x="113" y="430"/>
      <point x="116" y="430"/>
      <point x="119" y="429" type="curve" smooth="yes"/>
      <point x="123" y="427"/>
      <point x="132" y="414"/>
      <point x="132" y="404" type="curve" smooth="yes"/>
      <point x="132" y="378"/>
      <point x="88" y="360"/>
      <point x="64" y="360" type="curve" smooth="yes"/>
      <point x="47" y="360"/>
      <point x="34" y="369"/>
    </contour>
    <contour>
      <point x="94" y="341" type="line"/>
      <point x="121" y="345"/>
      <point x="143" y="354"/>
      <point x="160" y="369" type="curve"/>
      <point x="167" y="382"/>
      <point x="170" y="393"/>
      <point x="170" y="404" type="curve" smooth="yes"/>
      <point x="170" y="412"/>
      <point x="168" y="419"/>
      <point x="164" y="426" type="curve"/>
      <point x="195" y="426"/>
      <point x="226" y="393"/>
      <point x="226" y="366" type="curve" smooth="yes"/>
      <point x="226" y="343" type="line"/>
    </contour>
  </outline>
</glyph>
<glyph name="uni0DA10DCA" format="1">
  <advance width="518"/>
  <outline>
    <contour>
      <point x="13" y="221" type="curve" smooth="yes"/>
      <point x="13" y="126"/>
      <point x="56" y="48"/>
      <point x="140" y="17" type="curve"/>
      <point x="163" y="9" type="line"/>
      <point x="182" y="6" type="line" smooth="yes"/>
      <point x="216" y="0"/>
      <point x="237" y="-1"/>
      <point x="246" y="-1" type="curve" smooth="yes"/>
      <point x="299" y="3" type="line"/>
      <point x="344" y="13" type="line" smooth="yes"/>
      <point x="426" y="32"/>
      <point x="476" y="128"/>
      <point x="482" y="170" type="curve" smooth="yes"/>
      <point x="484" y="188"/>
      <point x="488" y="204"/>
      <point x="489" y="215" type="curve" smooth="yes"/>
      <point x="490" y="241" type="line" smooth="yes"/>
      <point x="490" y="243"/>
      <point x="490" y="244"/>
      <point x="490" y="246" type="curve" smooth="yes"/>
      <point x="490" y="292"/>
      <point x="470" y="345"/>
      <point x="455" y="364" type="curve"/>
      <point x="462" y="378"/>
      <point x="468" y="393"/>
      <point x="466" y="410" type="curve" smooth="yes"/>
      <point x="463" y="436" type="line"/>
      <point x="457" y="455" type="line"/>
      <point x="445" y="472" type="line"/>
      <point x="476" y="505"/>
      <point x="508" y="537"/>
      <point x="540" y="568" type="curve"/>
      <point x="488" y="568" type="line"/>
      <point x="414" y="495" type="line"/>
      <point x="402" y="500"/>
      <point x="390" y="502"/>
      <point x="377" y="503" type="curve" smooth="yes"/>
      <point x="344" y="506" type="line"/>
      <point x="303" y="506"/>
      <point x="260" y="474"/>
      <point x="253" y="435" type="curve"/>
      <point x="243" y="492"/>
      <point x="202" y="506"/>
      <point x="135" y="506" type="curve" smooth="yes"/>
      <point x="94" y="506"/>
      <point x="39" y="462"/>
      <point x="39" y="407" type="curve" smooth="yes"/>
      <point x="39" y="405"/>
      <point x="39" y="403"/>
      <point x="39" y="401" type="curve" smooth="yes"/>
      <point x="40" y="386" type="line"/>
      <point x="78" y="388" type="line"/>
      <point x="78" y="406"/>
      <point x="81" y="421"/>
      <point x="87" y="433" type="curve" smooth="yes"/>
      <point x="94" y="445"/>
      <point x="104" y="453"/>
      <point x="114" y="457" type="curve" smooth="yes"/>
      <point x="123" y="461"/>
      <point x="129" y="464"/>
      <point x="133" y="464" type="curve" smooth="yes"/>
      <point x="158" y="465" type="line"/>
      <point x="170" y="464" type="line" smooth="yes"/>
      <point x="192" y="462"/>
      <point x="205" y="452"/>
      <point x="212" y="433" type="curve" smooth="yes"/>
      <point x="216" y="423"/>
      <point x="220" y="410"/>
      <point x="220" y="393" type="curve"/>
      <point x="138" y="393" type="line"/>
      <point x="104" y="387" type="line" smooth="yes"/>
      <point x="92" y="384"/>
      <point x="78" y="376"/>
      <point x="63" y="366" type="curve" smooth="yes"/>
      <point x="30" y="344"/>
      <point x="13" y="295"/>
    </contour>
    <contour>
      <point x="52" y="226" type="curve" smooth="yes"/>
      <point x="52" y="241" type="line"/>
      <point x="58" y="278" type="line" smooth="yes"/>
      <point x="64" y="315"/>
      <point x="90" y="358"/>
      <point x="166" y="358" type="curve" smooth="yes"/>
      <point x="243" y="358" type="line"/>
      <point x="249" y="341" type="line"/>
      <point x="265" y="318" type="line"/>
      <point x="290" y="298"/>
      <point x="314" y="288"/>
      <point x="336" y="288" type="curve" smooth="yes"/>
      <point x="337" y="288"/>
      <point x="338" y="288"/>
      <point x="339" y="288" type="curve" smooth="yes"/>
      <point x="364" y="289" type="line"/>
      <point x="393" y="297" type="line"/>
      <point x="410" y="303"/>
      <point x="423" y="313"/>
      <point x="433" y="327" type="curve"/>
      <point x="443" y="311"/>
      <point x="449" y="296"/>
      <point x="449" y="282" type="curve" smooth="yes"/>
      <point x="452" y="227" type="line" smooth="yes"/>
      <point x="452" y="224"/>
      <point x="452" y="220"/>
      <point x="452" y="217" type="curve" smooth="yes"/>
      <point x="452" y="197"/>
      <point x="447" y="175"/>
      <point x="438" y="152" type="curve" smooth="yes"/>
      <point x="415" y="99"/>
      <point x="362" y="49"/>
      <point x="289" y="43" type="curve" smooth="yes"/>
      <point x="283" y="42"/>
      <point x="275" y="41"/>
      <point x="265" y="41" type="curve" smooth="yes"/>
      <point x="248" y="41" type="line" smooth="yes"/>
      <point x="208" y="41"/>
      <point x="173" y="45"/>
      <point x="143" y="58" type="curve" smooth="yes"/>
      <point x="81" y="85"/>
      <point x="52" y="144"/>
    </contour>
    <contour>
      <point x="281" y="393" type="curve" smooth="yes"/>
      <point x="281" y="432"/>
      <point x="310" y="467"/>
      <point x="348" y="467" type="curve" smooth="yes"/>
      <point x="382" y="467"/>
      <point x="403" y="457"/>
      <point x="414" y="442" type="curve" smooth="yes"/>
      <point x="419" y="434"/>
      <point x="424" y="429"/>
      <point x="424" y="424" type="curve"/>
      <point x="425" y="421"/>
      <point x="426" y="415"/>
      <point x="426" y="405" type="curve" smooth="yes"/>
      <point x="426" y="352"/>
      <point x="393" y="325"/>
      <point x="339" y="325" type="curve" smooth="yes"/>
      <point x="300" y="325"/>
      <point x="281" y="348"/>
    </contour>
    <contour>
      <point x="371" y="683" type="line"/>
      <point x="375" y="506" type="line"/>
      <point x="417" y="505" type="line"/>
      <point x="416" y="683" type="line"/>
    </contour>
  </outline>
</glyph>
<glyph name="uni0DA70DD2" format="1">
  <advance width="501"/>
  <outline>
    <contour>
      <point x="17" y="249" type="curve" smooth="yes"/>
      <point x="17" y="93"/>
      <point x="92" y="-2"/>
      <point x="245" y="-2" type="curve" smooth="yes"/>
      <point x="330" y="0"/>
      <point x="391" y="31"/>
      <point x="433" y="90" type="curve" smooth="yes"/>
      <point x="443" y="105"/>
      <point x="458" y="131"/>
      <point x="468" y="171" type="curve" smooth="yes"/>
      <point x="481" y="220"/>
      <point x="484" y="271"/>
      <point x="484" y="326" type="curve" smooth="yes"/>
      <point x="484" y="399"/>
      <point x="465" y="448"/>
      <point x="442" y="478" type="curve" smooth="yes"/>
      <point x="419" y="507"/>
      <point x="395" y="531"/>
      <point x="368" y="548" type="curve" smooth="yes"/>
      <point x="329" y="573"/>
      <point x="282" y="586"/>
      <point x="225" y="586" type="curve" smooth="yes"/>
      <point x="219" y="586"/>
      <point x="213" y="586"/>
      <point x="207" y="586" type="curve" smooth="yes"/>
      <point x="181" y="584"/>
      <point x="159" y="583"/>
      <point x="140" y="583" type="curve" smooth="yes"/>
      <point x="121" y="583"/>
      <point x="106" y="583"/>
      <point x="94" y="586" type="curve" smooth="yes"/>
      <point x="83" y="589"/>
      <point x="75" y="603"/>
      <point x="75" y="617" type="curve" smooth="yes"/>
      <point x="75" y="636"/>
      <point x="89" y="658"/>
      <point x="120" y="671" type="curve" smooth="yes"/>
      <point x="143" y="681"/>
      <point x="186" y="688"/>
      <point x="253" y="688" type="curve" smooth="yes"/>
      <point x="368" y="688"/>
      <point x="428" y="647"/>
      <point x="435" y="563" type="curve"/>
      <point x="477" y="562" type="line"/>
      <point x="477" y="635"/>
      <point x="447" y="686"/>
      <point x="384" y="711" type="curve" smooth="yes"/>
      <point x="353" y="723"/>
      <point x="309" y="728"/>
      <point x="254" y="728" type="curve" smooth="yes"/>
      <point x="140" y="728"/>
      <point x="69" y="702"/>
      <point x="41" y="650" type="curve" smooth="yes"/>
      <point x="34" y="638"/>
      <point x="30" y="623"/>
      <point x="30" y="608" type="curve" smooth="yes"/>
      <point x="30" y="576"/>
      <point x="48" y="542"/>
      <point x="90" y="542" type="curve" smooth="yes"/>
      <point x="140" y="542"/>
      <point x="183" y="545"/>
      <point x="226" y="545" type="curve" smooth="yes"/>
      <point x="289" y="545"/>
      <point x="349" y="524"/>
      <point x="393" y="472" type="curve" smooth="yes"/>
      <point x="425" y="433"/>
      <point x="438" y="386"/>
      <point x="440" y="338" type="curve"/>
      <point x="440" y="322" type="line" smooth="yes"/>
      <point x="440" y="275"/>
      <point x="431" y="230"/>
      <point x="422" y="187" type="curve" smooth="yes"/>
      <point x="412" y="138"/>
      <point x="388" y="95"/>
      <point x="338" y="68" type="curve" smooth="yes"/>
      <point x="306" y="50"/>
      <point x="271" y="44"/>
      <point x="238" y="44" type="curve" smooth="yes"/>
      <point x="123" y="44"/>
      <point x="66" y="114"/>
      <point x="66" y="255" type="curve" smooth="yes"/>
      <point x="66" y="340"/>
      <point x="108" y="383"/>
      <point x="194" y="383" type="curve" smooth="yes"/>
      <point x="225" y="383" type="line" smooth="yes"/>
      <point x="229" y="383"/>
      <point x="233" y="383"/>
      <point x="239" y="382" type="curve" smooth="yes"/>
      <point x="245" y="382"/>
      <point x="250" y="382"/>
      <point x="253" y="382" type="curve"/>
      <point x="253" y="427" type="line"/>
      <point x="239" y="427" type="line"/>
      <point x="223" y="428"/>
      <point x="207" y="429"/>
      <point x="191" y="429" type="curve" smooth="yes"/>
      <point x="172" y="429"/>
      <point x="153" y="429"/>
      <point x="135" y="426" type="curve" smooth="yes"/>
      <point x="96" y="418"/>
      <point x="64" y="394"/>
      <point x="43" y="352" type="curve" smooth="yes"/>
      <point x="25" y="316"/>
      <point x="17" y="281"/>
    </contour>
  </outline>
</glyph>
<glyph name="uni0DA70DD3" format="1">
  <advance width="501"/>
  <outline>
    <contour>
      <point x="17" y="249" type="curve" smooth="yes"/>
      <point x="17" y="93"/>
      <point x="92" y="-2"/>
      <point x="245" y="-2" type="curve" smooth="yes"/>
      <point x="330" y="0"/>
      <point x="391" y="31"/>
      <point x="433" y="90" type="curve" smooth="yes"/>
      <point x="443" y="105"/>
      <point x="458" y="131"/>
      <point x="468" y="171" type="curve" smooth="yes"/>
      <point x="481" y="220"/>
      <point x="484" y="271"/>
      <point x="484" y="326" type="curve" smooth="yes"/>
      <point x="484" y="399"/>
      <point x="465" y="448"/>
      <point x="442" y="478" type="curve" smooth="yes"/>
      <point x="419" y="507"/>
      <point x="395" y="531"/>
      <point x="368" y="548" type="curve" smooth="yes"/>
      <point x="329" y="573"/>
      <point x="282" y="586"/>
      <point x="225" y="586" type="curve" smooth="yes"/>
      <point x="219" y="586"/>
      <point x="213" y="586"/>
      <point x="207" y="586" type="curve" smooth="yes"/>
      <point x="181" y="584"/>
      <point x="159" y="583"/>
      <point x="140" y="583" type="curve" smooth="yes"/>
      <point x="121" y="583"/>
      <point x="106" y="583"/>
      <point x="94" y="586" type="curve" smooth="yes"/>
      <point x="83" y="589"/>
      <point x="75" y="603"/>
      <point x="75" y="617" type="curve" smooth="yes"/>
      <point x="75" y="636"/>
      <point x="89" y="658"/>
      <point x="120" y="671" type="curve" smooth="yes"/>
      <point x="139" y="679"/>
      <point x="197" y="690"/>
      <point x="259" y="690" type="curve" smooth="yes"/>
      <point x="344" y="690"/>
      <point x="435" y="671"/>
      <point x="435" y="607" type="curve" smooth="yes"/>
      <point x="435" y="605"/>
      <point x="435" y="603"/>
      <point x="435" y="601" type="curve" smooth="yes"/>
      <point x="426" y="585"/>
      <point x="413" y="578"/>
      <point x="395" y="578" type="curve" smooth="yes"/>
      <point x="388" y="578"/>
      <point x="380" y="579"/>
      <point x="372" y="581" type="curve"/>
      <point x="354" y="592"/>
      <point x="345" y="607"/>
      <point x="345" y="625" type="curve" smooth="yes"/>
      <point x="345" y="639"/>
      <point x="349" y="654"/>
      <point x="358" y="671" type="curve"/>
      <point x="333" y="679" type="line"/>
      <point x="325" y="671"/>
      <point x="312" y="640"/>
      <point x="312" y="619" type="curve" smooth="yes"/>
      <point x="312" y="580"/>
      <point x="349" y="552"/>
      <point x="390" y="549" type="curve"/>
      <point x="394" y="547"/>
      <point x="404" y="547"/>
      <point x="415" y="547" type="curve" smooth="yes"/>
      <point x="426" y="547"/>
      <point x="438" y="549"/>
      <point x="447" y="554" type="curve"/>
      <point x="464" y="559"/>
      <point x="472" y="574"/>
      <point x="472" y="599" type="curve" smooth="yes"/>
      <point x="472" y="647"/>
      <point x="446" y="687"/>
      <point x="384" y="711" type="curve" smooth="yes"/>
      <point x="353" y="724"/>
      <point x="309" y="728"/>
      <point x="254" y="728" type="curve" smooth="yes"/>
      <point x="140" y="728"/>
      <point x="69" y="702"/>
      <point x="41" y="650" type="curve" smooth="yes"/>
      <point x="34" y="638"/>
      <point x="30" y="623"/>
      <point x="30" y="608" type="curve" smooth="yes"/>
      <point x="30" y="576"/>
      <point x="48" y="542"/>
      <point x="90" y="542" type="curve" smooth="yes"/>
      <point x="140" y="542"/>
      <point x="183" y="545"/>
      <point x="226" y="545" type="curve" smooth="yes"/>
      <point x="289" y="545"/>
      <point x="349" y="524"/>
      <point x="393" y="472" type="curve" smooth="yes"/>
      <point x="425" y="433"/>
      <point x="438" y="386"/>
      <point x="440" y="338" type="curve"/>
      <point x="440" y="322" type="line" smooth="yes"/>
      <point x="440" y="275"/>
      <point x="431" y="230"/>
      <point x="422" y="187" type="curve" smooth="yes"/>
      <point x="412" y="138"/>
      <point x="388" y="95"/>
      <point x="338" y="68" type="curve" smooth="yes"/>
      <point x="306" y="50"/>
      <point x="271" y="44"/>
      <point x="238" y="44" type="curve" smooth="yes"/>
      <point x="123" y="44"/>
      <point x="66" y="114"/>
      <point x="66" y="255" type="curve" smooth="yes"/>
      <point x="66" y="340"/>
      <point x="108" y="383"/>
      <point x="194" y="383" type="curve" smooth="yes"/>
      <point x="225" y="383" type="line" smooth="yes"/>
      <point x="229" y="383"/>
      <point x="233" y="383"/>
      <point x="239" y="382" type="curve" smooth="yes"/>
      <point x="245" y="382"/>
      <point x="250" y="382"/>
      <point x="253" y="382" type="curve"/>
      <point x="253" y="427" type="line"/>
      <point x="239" y="427" type="line"/>
      <point x="223" y="428"/>
      <point x="207" y="429"/>
      <point x="191" y="429" type="curve" smooth="yes"/>
      <point x="172" y="429"/>
      <point x="153" y="429"/>
      <point x="135" y="426" type="curve" smooth="yes"/>
      <point x="96" y="418"/>
      <point x="64" y="394"/>
      <point x="43" y="352" type="curve" smooth="yes"/>
      <point x="25" y="316"/>
      <point x="17" y="281"/>
    </contour>
  </outline>
</glyph>
<glyph name="uni0DB30DCA200D0DA80DD2" format="1">
  <advance width="589"/>
  <outline>
    <contour>
      <point x="13" y="295" type="curve" smooth="yes"/>
      <point x="13" y="286"/>
      <point x="14" y="275"/>
      <point x="16" y="265" type="curve" smooth="yes"/>
      <point x="18" y="250"/>
      <point x="46" y="207"/>
      <point x="59" y="202" type="curve"/>
      <point x="48" y="209"/>
      <point x="38" y="262"/>
      <point x="38" y="285" type="curve" smooth="yes"/>
      <point x="38" y="288"/>
      <point x="38" y="291"/>
      <point x="39" y="292" type="curve"/>
      <point x="39" y="294"/>
      <point x="39" y="296"/>
      <point x="39" y="299" type="curve" smooth="yes"/>
      <point x="39" y="314"/>
      <point x="53" y="330"/>
      <point x="62" y="341" type="curve" smooth="yes"/>
      <point x="66" y="346"/>
      <point x="69" y="349"/>
      <point x="75" y="353" type="curve" smooth="yes"/>
      <point x="80" y="356"/>
      <point x="87" y="361"/>
      <point x="99" y="367" type="curve"/>
      <point x="99" y="369"/>
      <point x="99" y="371"/>
      <point x="99" y="373" type="curve" smooth="yes"/>
      <point x="99" y="388"/>
      <point x="107" y="407"/>
      <point x="107" y="421" type="curve" smooth="yes"/>
      <point x="107" y="422"/>
      <point x="106" y="421"/>
      <point x="103" y="416" type="curve"/>
      <point x="101" y="415"/>
      <point x="98" y="413" type="curve" smooth="yes"/>
      <point x="91" y="408"/>
      <point x="81" y="402"/>
      <point x="73" y="398" type="curve" smooth="yes"/>
      <point x="69" y="396"/>
      <point x="67" y="395"/>
      <point x="67" y="394" type="curve" smooth="yes"/>
      <point x="33" y="370"/>
      <point x="13" y="338"/>
    </contour>
    <contour>
      <point x="79" y="168" type="line"/>
      <point x="83" y="135" type="line" smooth="yes"/>
      <point x="86" y="104"/>
      <point x="102" y="68"/>
      <point x="113" y="54" type="curve"/>
      <point x="116" y="47"/>
      <point x="122" y="40"/>
      <point x="129" y="32" type="curve" smooth="yes"/>
      <point x="151" y="11"/>
      <point x="181" y="0"/>
      <point x="217" y="0" type="curve" smooth="yes"/>
      <point x="264" y="0"/>
      <point x="301" y="23"/>
      <point x="320" y="58" type="curve"/>
      <point x="325" y="44"/>
      <point x="329" y="35"/>
      <point x="333" y="32" type="curve" smooth="yes"/>
      <point x="352" y="16" type="line" smooth="yes"/>
      <point x="359" y="10"/>
      <point x="368" y="4"/>
      <point x="377" y="3" type="curve" smooth="yes"/>
      <point x="410" y="0" type="line"/>
      <point x="445" y="4" type="line"/>
      <point x="483" y="18" type="line"/>
      <point x="499" y="25"/>
      <point x="514" y="39"/>
      <point x="528" y="59" type="curve" smooth="yes"/>
      <point x="558" y="101"/>
      <point x="573" y="159"/>
      <point x="573" y="236" type="curve" smooth="yes"/>
      <point x="573" y="296"/>
      <point x="563" y="350"/>
      <point x="545" y="396" type="curve" smooth="yes"/>
      <point x="529" y="438" type="line"/>
      <point x="507" y="479" type="line" smooth="yes"/>
      <point x="479" y="530"/>
      <point x="478" y="535"/>
      <point x="438" y="560" type="curve" smooth="yes"/>
      <point x="421" y="572"/>
      <point x="405" y="579"/>
      <point x="389" y="580" type="curve"/>
      <point x="371" y="585"/>
      <point x="335" y="588"/>
      <point x="282" y="588" type="curve" smooth="yes"/>
      <point x="267" y="588"/>
      <point x="250" y="585"/>
      <point x="231" y="587" type="curve" smooth="yes"/>
      <point x="167" y="594" type="line"/>
      <point x="151" y="603"/>
      <point x="143" y="614"/>
      <point x="143" y="635" type="curve" smooth="yes"/>
      <point x="143" y="667"/>
      <point x="162" y="682"/>
      <point x="189" y="686" type="curve" smooth="yes"/>
      <point x="208" y="688"/>
      <point x="234" y="690"/>
      <point x="269" y="691" type="curve" smooth="yes"/>
      <point x="327" y="692" type="line" smooth="yes"/>
      <point x="334" y="692"/>
      <point x="342" y="693"/>
      <point x="349" y="693" type="curve" smooth="yes"/>
      <point x="394" y="693"/>
      <point x="445" y="686"/>
      <point x="472" y="673" type="curve" smooth="yes"/>
      <point x="504" y="658"/>
      <point x="512" y="624"/>
      <point x="512" y="585" type="curve" smooth="yes"/>
      <point x="512" y="579"/>
      <point x="512" y="574"/>
      <point x="512" y="572" type="curve"/>
      <point x="546" y="568" type="line"/>
      <point x="545" y="574"/>
      <point x="545" y="579"/>
      <point x="545" y="584" type="curve" smooth="yes"/>
      <point x="545" y="589"/>
      <point x="545" y="593"/>
      <point x="546" y="598" type="curve"/>
      <point x="546" y="606"/>
      <point x="547" y="614"/>
      <point x="547" y="622" type="curve" smooth="yes"/>
      <point x="547" y="671"/>
      <point x="502" y="705"/>
      <point x="468" y="716" type="curve" smooth="yes"/>
      <point x="443" y="725"/>
      <point x="416" y="727"/>
      <point x="384" y="727" type="curve" smooth="yes"/>
      <point x="375" y="727"/>
      <point x="363" y="728"/>
      <point x="350" y="728" type="curve" smooth="yes"/>
      <point x="305" y="728" type="line"/>
      <point x="274" y="727"/>
      <point x="241" y="727"/>
      <point x="212" y="725" type="curve" smooth="yes"/>
      <point x="184" y="722"/>
      <point x="160" y="719"/>
      <point x="150" y="713" type="curve" smooth="yes"/>
      <point x="117" y="697"/>
      <point x="104" y="691"/>
      <point x="98" y="647" type="curve" smooth="yes"/>
      <point x="97" y="640"/>
      <point x="96" y="634"/>
      <point x="96" y="627" type="curve" smooth="yes"/>
      <point x="96" y="600"/>
      <point x="107" y="578"/>
      <point x="131" y="560" type="curve"/>
      <point x="147" y="553"/>
      <point x="168" y="549"/>
      <point x="193" y="549" type="curve" smooth="yes"/>
      <point x="199" y="549"/>
      <point x="206" y="549"/>
      <point x="213" y="550" type="curve" smooth="yes"/>
      <point x="217" y="550"/>
      <point x="220" y="550"/>
      <point x="224" y="550" type="curve" smooth="yes"/>
      <point x="242" y="550"/>
      <point x="258" y="547"/>
      <point x="274" y="540" type="curve"/>
      <point x="286" y="528"/>
      <point x="298" y="517"/>
      <point x="298" y="498" type="curve" smooth="yes"/>
      <point x="298" y="486"/>
      <point x="295" y="469"/>
      <point x="288" y="447" type="curve"/>
      <point x="275" y="455"/>
      <point x="264" y="460"/>
      <point x="253" y="465" type="curve" smooth="yes"/>
      <point x="243" y="469"/>
      <point x="236" y="473"/>
      <point x="234" y="473" type="curve"/>
      <point x="232" y="475"/>
      <point x="228" y="475"/>
      <point x="220" y="475" type="curve"/>
      <point x="217" y="477"/>
      <point x="211" y="477"/>
      <point x="202" y="477" type="curve" smooth="yes"/>
      <point x="133" y="477"/>
      <point x="99" y="437"/>
      <point x="99" y="356" type="curve"/>
      <point x="132" y="325" type="line"/>
      <point x="123" y="317" type="line" smooth="yes"/>
      <point x="112" y="308"/>
      <point x="105" y="295"/>
      <point x="98" y="279" type="curve" smooth="yes"/>
      <point x="86" y="249"/>
      <point x="79" y="217"/>
      <point x="79" y="183" type="curve" smooth="yes"/>
    </contour>
    <contour>
      <point x="125" y="165" type="curve" smooth="yes"/>
      <point x="125" y="169"/>
      <point x="125" y="174"/>
      <point x="125" y="178" type="curve" smooth="yes"/>
      <point x="126" y="221" type="line"/>
      <point x="138" y="259" type="line" smooth="yes"/>
      <point x="144" y="281"/>
      <point x="169" y="313"/>
      <point x="186" y="317" type="curve"/>
      <point x="296" y="317" type="line"/>
      <point x="296" y="403" type="line"/>
      <point x="312" y="391" type="line" smooth="yes"/>
      <point x="320" y="384"/>
      <point x="326" y="380"/>
      <point x="329" y="380" type="curve" smooth="yes"/>
      <point x="352" y="374" type="line"/>
      <point x="377" y="373" type="line"/>
      <point x="396" y="373" type="line"/>
      <point x="434" y="377"/>
      <point x="474" y="400"/>
      <point x="484" y="433" type="curve"/>
      <point x="521" y="382"/>
      <point x="532" y="280"/>
      <point x="532" y="241" type="curve" smooth="yes"/>
      <point x="532" y="239"/>
      <point x="532" y="238"/>
      <point x="532" y="236" type="curve" smooth="yes"/>
      <point x="531" y="211" type="line"/>
      <point x="526" y="172" type="line"/>
      <point x="521" y="146" type="line"/>
      <point x="516" y="127" type="line" smooth="yes"/>
      <point x="513" y="118"/>
      <point x="510" y="109"/>
      <point x="505" y="101" type="curve" smooth="yes"/>
      <point x="504" y="98"/>
      <point x="502" y="91"/>
      <point x="496" y="84" type="curve" smooth="yes"/>
      <point x="473" y="55"/>
      <point x="448" y="42"/>
      <point x="424" y="42" type="curve" smooth="yes"/>
      <point x="383" y="42"/>
      <point x="356" y="54"/>
      <point x="350" y="82" type="curve" smooth="yes"/>
      <point x="344" y="112" type="line"/>
      <point x="344" y="268" type="line"/>
      <point x="296" y="268" type="line"/>
      <point x="296" y="207" type="line"/>
      <point x="295" y="149" type="line"/>
      <point x="291" y="93" type="line"/>
      <point x="282" y="63"/>
      <point x="247" y="41"/>
      <point x="214" y="41" type="curve" smooth="yes"/>
      <point x="157" y="41"/>
      <point x="125" y="103"/>
    </contour>
    <contour>
      <point x="142" y="358" type="line"/>
      <point x="142" y="374" type="line"/>
      <point x="145" y="401" type="line"/>
      <point x="152" y="426"/>
      <point x="169" y="439"/>
      <point x="198" y="439" type="curve" smooth="yes"/>
      <point x="230" y="439"/>
      <point x="257" y="423"/>
      <point x="257" y="374" type="curve" smooth="yes"/>
      <point x="257" y="358" type="line"/>
    </contour>
    <contour>
      <point x="319" y="447" type="curve" smooth="yes"/>
      <point x="319" y="448"/>
      <point x="321" y="455"/>
      <point x="325" y="467" type="curve" smooth="yes"/>
      <point x="329" y="479"/>
      <point x="331" y="490"/>
      <point x="331" y="499" type="curve" smooth="yes"/>
      <point x="331" y="513"/>
      <point x="327" y="525"/>
      <point x="319" y="538" type="curve"/>
      <point x="344" y="534"/>
      <point x="367" y="531"/>
      <point x="387" y="527" type="curve"/>
      <point x="427" y="506"/>
      <point x="448" y="484"/>
      <point x="448" y="461" type="curve" smooth="yes"/>
      <point x="448" y="452"/>
      <point x="444" y="442"/>
      <point x="438" y="432" type="curve"/>
      <point x="422" y="424"/>
      <point x="398" y="413"/>
      <point x="376" y="413" type="curve" smooth="yes"/>
      <point x="349" y="413"/>
      <point x="331" y="425"/>
      <point x="320" y="443" type="curve" smooth="yes"/>
      <point x="319" y="444"/>
      <point x="319" y="445"/>
    </contour>
  </outline>
</glyph>
<glyph name="uni0DC10DD6" format="1">
  <advance width="572"/>
  <outline>
    <contour>
      <point x="15" y="298" type="curve" smooth="yes"/>
      <point x="16" y="223" type="line" smooth="yes"/>
      <point x="17" y="200"/>
      <point x="21" y="169"/>
      <point x="31" y="132" type="curve" smooth="yes"/>
      <point x="52" y="49"/>
      <point x="113" y="0"/>
      <point x="203" y="0" type="curve" smooth="yes"/>
      <point x="281" y="0"/>
      <point x="346" y="48"/>
      <point x="353" y="102" type="curve"/>
      <point x="359" y="84" type="line"/>
      <point x="369" y="69" type="line"/>
      <point x="383" y="60" type="line"/>
      <point x="388" y="58"/>
      <point x="391" y="54"/>
      <point x="393" y="48" type="curve"/>
      <point x="386" y="43"/>
      <point x="377" y="41"/>
      <point x="367" y="40" type="curve" smooth="yes"/>
      <point x="342" y="39" type="line"/>
      <point x="342" y="1" type="line"/>
      <point x="360" y="0" type="line"/>
      <point x="399" y="4" type="line"/>
      <point x="417" y="8"/>
      <point x="433" y="13"/>
      <point x="445" y="18" type="curve" smooth="yes"/>
      <point x="518" y="49"/>
      <point x="558" y="139"/>
      <point x="558" y="236" type="curve" smooth="yes"/>
      <point x="558" y="241"/>
      <point x="557" y="246"/>
      <point x="557" y="251" type="curve" smooth="yes"/>
      <point x="556" y="272" type="line"/>
      <point x="553" y="308" type="line"/>
      <point x="542" y="371" type="line" smooth="yes"/>
      <point x="538" y="392"/>
      <point x="529" y="414"/>
      <point x="514" y="437" type="curve" smooth="yes"/>
      <point x="484" y="483"/>
      <point x="441" y="507"/>
      <point x="385" y="507" type="curve" smooth="yes"/>
      <point x="335" y="507"/>
      <point x="298" y="501"/>
      <point x="272" y="489" type="curve" smooth="yes"/>
      <point x="226" y="467"/>
      <point x="189" y="410"/>
      <point x="183" y="357" type="curve" smooth="yes"/>
      <point x="177" y="301" type="line"/>
      <point x="177" y="222" type="line"/>
      <point x="216" y="222" type="line"/>
      <point x="216" y="271" type="line"/>
      <point x="220" y="304" type="line"/>
      <point x="230" y="302" type="line"/>
      <point x="253" y="302" type="line" smooth="yes"/>
      <point x="284" y="302"/>
      <point x="306" y="295"/>
      <point x="319" y="254" type="curve" smooth="yes"/>
      <point x="322" y="245"/>
      <point x="325" y="237"/>
      <point x="325" y="232" type="curve"/>
      <point x="327" y="228"/>
      <point x="327" y="222"/>
      <point x="327" y="215" type="curve" smooth="yes"/>
      <point x="327" y="201" type="line"/>
      <point x="326" y="178" type="line"/>
      <point x="321" y="140" type="line"/>
      <point x="310" y="80"/>
      <point x="270" y="41"/>
      <point x="204" y="41" type="curve" smooth="yes"/>
      <point x="141" y="41"/>
      <point x="91" y="79"/>
      <point x="77" y="134" type="curve" smooth="yes"/>
      <point x="68" y="169" type="line"/>
      <point x="63" y="203" type="line"/>
      <point x="59" y="235" type="line"/>
      <point x="58" y="273" type="line" smooth="yes"/>
      <point x="58" y="303"/>
      <point x="61" y="327"/>
      <point x="67" y="346" type="curve" smooth="yes"/>
      <point x="80" y="385" type="line"/>
      <point x="96" y="415" type="line"/>
      <point x="127" y="458"/>
      <point x="150" y="465"/>
      <point x="212" y="465" type="curve"/>
      <point x="212" y="507" type="line"/>
      <point x="185" y="506" type="line"/>
      <point x="144" y="501" type="line" smooth="yes"/>
      <point x="127" y="499"/>
      <point x="111" y="492"/>
      <point x="97" y="479" type="curve" smooth="yes"/>
      <point x="42" y="432"/>
      <point x="14" y="371"/>
    </contour>
    <contour>
      <point x="225" y="342" type="line"/>
      <point x="230" y="400"/>
      <point x="267" y="455"/>
      <point x="322" y="463" type="curve" smooth="yes"/>
      <point x="336" y="465"/>
      <point x="348" y="465"/>
      <point x="357" y="465" type="curve" smooth="yes"/>
      <point x="403" y="461" type="line"/>
      <point x="441" y="453"/>
      <point x="468" y="432"/>
      <point x="484" y="397" type="curve" smooth="yes"/>
      <point x="503" y="354"/>
      <point x="502" y="358"/>
      <point x="508" y="324" type="curve" smooth="yes"/>
      <point x="510" y="309"/>
      <point x="513" y="296"/>
      <point x="513" y="285" type="curve"/>
      <point x="515" y="278"/>
      <point x="515" y="272"/>
      <point x="515" y="268" type="curve" smooth="yes"/>
      <point x="515" y="256" type="line"/>
      <point x="512" y="218" type="line"/>
      <point x="497" y="239" type="line" smooth="yes"/>
      <point x="490" y="249"/>
      <point x="478" y="255"/>
      <point x="463" y="258" type="curve" smooth="yes"/>
      <point x="441" y="261" type="line"/>
      <point x="410" y="261"/>
      <point x="385" y="250"/>
      <point x="368" y="227" type="curve"/>
      <point x="368" y="304"/>
      <point x="336" y="342"/>
      <point x="273" y="342" type="curve" smooth="yes"/>
    </contour>
    <contour>
      <point x="335" y="21" type="line"/>
      <point x="368" y="-37" type="line"/>
      <point x="349" y="-51"/>
      <point x="339" y="-70"/>
      <point x="339" y="-93" type="curve" smooth="yes"/>
      <point x="339" y="-147"/>
      <point x="395" y="-168"/>
      <point x="454" y="-168" type="curve" smooth="yes"/>
      <point x="535" y="-168"/>
      <point x="576" y="-131"/>
      <point x="576" y="-58" type="curve" smooth="yes"/>
      <point x="576" y="-47"/>
      <point x="575" y="-39"/>
      <point x="575" y="-35" type="curve"/>
      <point x="530" y="-35" type="line"/>
      <point x="530" y="-46" type="line" smooth="yes"/>
      <point x="530" y="-97"/>
      <point x="505" y="-123"/>
      <point x="455" y="-123" type="curve" smooth="yes"/>
      <point x="411" y="-123"/>
      <point x="389" y="-107"/>
      <point x="389" y="-78" type="curve" smooth="yes"/>
      <point x="389" y="-65"/>
      <point x="399" y="-53"/>
      <point x="419" y="-42" type="curve"/>
      <point x="387" y="21" type="line"/>
    </contour>
    <contour>
      <point x="379" y="151" type="curve" smooth="yes"/>
      <point x="379" y="193"/>
      <point x="396" y="215"/>
      <point x="431" y="215" type="curve" smooth="yes"/>
      <point x="464" y="215"/>
      <point x="490" y="190"/>
      <point x="490" y="157" type="curve" smooth="yes"/>
      <point x="490" y="114"/>
      <point x="472" y="83"/>
      <point x="435" y="65" type="curve"/>
      <point x="431" y="79"/>
      <point x="427" y="87"/>
      <point x="423" y="89" type="curve" smooth="yes"/>
      <point x="417" y="93"/>
      <point x="414" y="95"/>
      <point x="410" y="95" type="curve"/>
      <point x="389" y="109"/>
      <point x="379" y="128"/>
    </contour>
  </outline>
</glyph>
